<svg width="512" height="512" viewBox="0 0 512 512" fill="none" xmlns="http://www.w3.org/2000/svg">
  <!-- Moroccan Arch Shape (Terra Cotta/Orange) -->
  <path d="M256 50C200 50 155 95 155 151V361C155 417 200 462 256 462C312 462 357 417 357 361V151C357 95 312 50 256 50Z" fill="#D97652" stroke="white" stroke-width="8"/>
  
  <!-- Inner Door Shape (Navy Blue) -->
  <path d="M225 120C195 120 175 140 175 170V342C175 372 195 392 225 392C240 392 253 385 262 375C271 385 284 392 299 392C329 392 349 372 349 342V170C349 140 329 120 299 120C284 120 271 127 262 137C253 127 240 120 225 120Z" fill="#2E3B6F" stroke="white" stroke-width="6"/>
  
  <!-- Gold/Yellow Accent Circle (representing the "D") -->
  <circle cx="280" cy="256" r="35" fill="#F7B731"/>
  
  <!-- Decorative White Arcs -->
  <path d="M215 110C195 115 180 135 180 160V352C180 377 195 397 215 402" stroke="white" stroke-width="5" fill="none" stroke-linecap="round"/>
  <path d="M297 110C317 115 332 135 332 160V352C332 377 317 397 297 402" stroke="white" stroke-width="5" fill="none" stroke-linecap="round"/>
</svg>
